<svg width="290" height="493" viewBox="0 0 290 493" fill="none" xmlns="http://www.w3.org/2000/svg">
<path d="M281.2 226.804L62.252 7.86C57.188 2.792 50.428 0 43.22 0C36.012 0 29.252 2.792 24.188 7.86L8.064 23.98C-2.428 34.484 -2.428 51.556 8.064 62.044L191.92 245.9L7.86 429.96C2.796 435.028 0 441.784 0 448.988C0 456.2 2.796 462.956 7.86 468.028L23.984 484.144C29.052 489.212 35.808 492.004 43.016 492.004C50.224 492.004 56.984 489.212 62.048 484.144L281.2 265C286.276 259.916 289.064 253.128 289.048 245.912C289.064 238.668 286.276 231.884 281.2 226.804Z" fill="white"/>
</svg>
