<!-- <svg width="1440" height="523" viewBox="0 0 1440 523" fill="none" xmlns="http://www.w3.org/2000/svg">
<path d="M0 0H1440V512C1347 553.5 1240.64 455.121 1109.5 452C958.534 448.408 878.509 512 727.5 512C576.491 512 496.49 449.561 345.5 452C208.572 454.212 108 549.5 0 512V0Z" fill="#2F2E41"/>
</svg>
 -->

<svg width="1440" height="568" viewBox="0 0 1440 568" fill="none" xmlns="http://www.w3.org/2000/svg">
<path d="M0 0H1440V556.909C1347 602.049 1240.64 495.04 1109.5 491.646C958.534 487.738 878.509 556.909 727.5 556.909C576.491 556.909 496.49 488.993 345.5 491.646C208.572 494.052 108 597.698 0 556.909V0Z" fill="url(#paint0_linear)"/>
<defs>
<linearGradient id="paint0_linear" x1="720" y1="0" x2="720" y2="614" gradientUnits="userSpaceOnUse">
<stop stop-color="#0159C1"/>
<stop offset="1" stop-color="#57A4FF" stop-opacity="0"/>
</linearGradient>
</defs>
</svg>


