<svg width="69" height="52" viewBox="0 0 69 52" fill="none" xmlns="http://www.w3.org/2000/svg">
<g clip-path="url(#clip0)">
<path d="M59.1154 28.1693C59.1154 36.1675 54.4196 43.2432 47.2212 47.5505C42.6059 50.3126 36.9611 51.9368 30.8662 51.9368C22.7466 51.9368 16.553 48.8724 11.894 44.1783C7.59961 39.8526 4.60945 34.1419 2.61707 28.1693C-6.27742 1.50319 8.58092 -5.77169 30.8662 4.40189C45.0554 10.8802 59.1154 15.0433 59.1154 28.1693Z" fill="#6C63FF"/>
<path d="M47.2211 14.2094V47.6136C42.6058 50.3758 36.961 51.9999 30.8661 51.9999C22.7466 51.9999 16.5529 48.9356 11.8939 44.2414V14.2094H47.2211Z" fill="#F2F2F2"/>
<path d="M15.2918 30.4859C17.1415 29.8984 19.0606 29.5567 20.9996 29.4697C21.9713 29.4285 22.9446 29.4665 23.91 29.5834C24.8661 29.7097 25.8107 29.9116 26.7347 30.1873C27.6477 30.4513 28.5481 30.7562 29.458 31.0303C30.3823 31.3122 31.322 31.5412 32.2725 31.7161C33.218 31.887 34.1729 32.0006 35.1322 32.0565C36.082 32.1116 37.0412 32.1224 37.9884 32.0213C38.8731 31.9362 39.7397 31.7169 40.5582 31.3708C41.3215 31.0382 42.027 30.5863 42.6481 30.0322C42.8031 29.894 42.9522 29.7498 43.0954 29.5994C43.1799 29.5112 43.0458 29.3769 42.9611 29.4653C41.7503 30.7292 40.1589 31.5129 38.4327 31.7747C37.4924 31.9172 36.5341 31.9255 35.5854 31.8887C34.6156 31.8514 33.649 31.7538 32.6912 31.5967C31.745 31.44 30.809 31.2273 29.8881 30.9596C28.9836 30.6979 28.0913 30.3962 27.1899 30.1241C26.2806 29.839 25.3523 29.6181 24.4119 29.4632C23.4689 29.3198 22.5156 29.2537 21.5618 29.2657C19.6557 29.2961 17.7619 29.5761 15.9289 30.0986C15.6986 30.1632 15.4695 30.2313 15.2413 30.303C15.1251 30.3394 15.1747 30.5225 15.2918 30.4859H15.2918Z" fill="#3F3D56"/>
<path d="M15.2918 35.2907C17.1415 34.7032 19.0606 34.3615 20.9996 34.2745C21.9713 34.2333 22.9446 34.2713 23.91 34.3882C24.8661 34.5145 25.8107 34.7164 26.7347 34.9921C27.6477 35.2561 28.5481 35.561 29.458 35.8351C30.3823 36.117 31.322 36.346 32.2725 36.5209C33.218 36.6918 34.1729 36.8054 35.1322 36.8613C36.082 36.9164 37.0412 36.9272 37.9884 36.8261C38.8731 36.7411 39.7397 36.5217 40.5582 36.1756C41.3215 35.843 42.027 35.3911 42.6481 34.837C42.8031 34.6989 42.9522 34.5546 43.0954 34.4043C43.1799 34.3161 43.0458 34.1817 42.9611 34.2701C41.7503 35.5341 40.1589 36.3178 38.4327 36.5795C37.4924 36.722 36.5341 36.7303 35.5854 36.6935C34.6156 36.6562 33.649 36.5586 32.6912 36.4015C31.745 36.2448 30.809 36.0321 29.8881 35.7644C28.9836 35.5027 28.0913 35.201 27.1899 34.9289C26.2806 34.6438 25.3523 34.4229 24.4119 34.268C23.4689 34.1246 22.5156 34.0585 21.5618 34.0705C19.6557 34.1009 17.7619 34.3809 15.9289 34.9034C15.6986 34.968 15.4695 35.0361 15.2413 35.1078C15.1251 35.1442 15.1747 35.3274 15.2918 35.2907H15.2918Z" fill="#3F3D56"/>
<path d="M15.2918 26.1236C17.1415 25.5361 19.0606 25.1944 20.9996 25.1074C21.9713 25.0661 22.9446 25.1042 23.91 25.2211C24.8661 25.3474 25.8107 25.5493 26.7347 25.825C27.6477 26.089 28.5481 26.3939 29.458 26.668C30.3823 26.9499 31.322 27.1789 32.2725 27.3538C33.218 27.5247 34.1729 27.6383 35.1322 27.6942C36.082 27.7493 37.0412 27.7601 37.9884 27.659C38.8731 27.5739 39.7397 27.3546 40.5582 27.0085C41.3215 26.6759 42.027 26.224 42.6481 25.6699C42.8031 25.5317 42.9522 25.3875 43.0954 25.2371C43.1799 25.1489 43.0458 25.0146 42.9611 25.103C41.7503 26.3669 40.1589 27.1506 38.4327 27.4124C37.4924 27.5549 36.5341 27.5632 35.5854 27.5264C34.6156 27.4891 33.649 27.3915 32.6912 27.2344C31.745 27.0777 30.809 26.865 29.8881 26.5973C28.9836 26.3356 28.0913 26.0339 27.1899 25.7618C26.2806 25.4767 25.3523 25.2558 24.4119 25.1009C23.4689 24.9575 22.5156 24.8914 21.5618 24.9034C19.6557 24.9338 17.7619 25.2138 15.9289 25.7363C15.6986 25.8009 15.4695 25.869 15.2413 25.9407C15.1251 25.9771 15.1747 26.1602 15.2918 26.1236H15.2918Z" fill="#3F3D56"/>
<path d="M15.0657 17.8758C15.5252 17.6725 16.0516 17.7079 16.5285 17.8258C17.0428 17.9529 17.527 18.1739 18.0332 18.3268C18.9393 18.5964 19.9018 18.6146 20.8175 18.3795C21.333 18.2482 21.8249 18.0377 22.2756 17.7554C22.3789 17.6906 22.2836 17.5264 22.1798 17.5916C21.3763 18.0926 20.4477 18.357 19.5005 18.3544C19.0254 18.3537 18.553 18.2842 18.0979 18.1482C17.5954 17.9977 17.1151 17.7793 16.606 17.6497C16.0666 17.5124 15.4883 17.4827 14.9698 17.712C14.8583 17.7613 14.9548 17.9248 15.0657 17.8758Z" fill="#3F3D56"/>
<path d="M29.1777 46.9581C30.7861 46.9581 32.09 45.6561 32.09 44.0499C32.09 42.4438 30.7861 41.1417 29.1777 41.1417C27.5693 41.1417 26.2654 42.4438 26.2654 44.0499C26.2654 45.6561 27.5693 46.9581 29.1777 46.9581Z" fill="#3F3D56"/>
<path d="M13.4766 8.26666C14.3508 8.26666 15.0594 7.55903 15.0594 6.68613C15.0594 5.81322 14.3508 5.10559 13.4766 5.10559C12.6025 5.10559 11.8939 5.81322 11.8939 6.68613C11.8939 7.55903 12.6025 8.26666 13.4766 8.26666Z" fill="#F2F2F2"/>
<path d="M27.3417 12.2496C27.9361 12.2496 28.418 11.7684 28.418 11.1749C28.418 10.5813 27.9361 10.1001 27.3417 10.1001C26.7473 10.1001 26.2654 10.5813 26.2654 11.1749C26.2654 11.7684 26.7473 12.2496 27.3417 12.2496Z" fill="#F2F2F2"/>
<path d="M9.86802 22.5547C10.4624 22.5547 10.9443 22.0735 10.9443 21.4799C10.9443 20.8863 10.4624 20.4052 9.86802 20.4052C9.27361 20.4052 8.79175 20.8863 8.79175 21.4799C8.79175 22.0735 9.27361 22.5547 9.86802 22.5547Z" fill="#F2F2F2"/>
<path d="M5.53477 13.4955H5.41608V34.6901H5.53477V13.4955Z" fill="#3F3D56"/>
<path d="M5.49817 32.8737C6.77639 32.8737 7.8126 30.5124 7.8126 27.5995C7.8126 24.6867 6.77639 22.3253 5.49817 22.3253C4.21995 22.3253 3.18375 24.6867 3.18375 27.5995C3.18375 30.5124 4.21995 32.8737 5.49817 32.8737Z" fill="#3F3D56"/>
<path d="M5.49817 20.8438C6.77639 20.8438 7.8126 18.4825 7.8126 15.5696C7.8126 12.6568 6.77639 10.2954 5.49817 10.2954C4.21995 10.2954 3.18375 12.6568 3.18375 15.5696C3.18375 18.4825 4.21995 20.8438 5.49817 20.8438Z" fill="#3F3D56"/>
<path d="M5.55514 11.2606L5.44144 11.2265C5.44862 11.2026 6.14638 8.81482 5.00067 7.27769C4.35356 6.40955 3.24315 5.96935 1.70026 5.96935V5.85083C3.28296 5.85083 4.42551 6.30724 5.09621 7.20737C6.27739 8.79268 5.5625 11.2361 5.55514 11.2606Z" fill="#3F3D56"/>
<path d="M1.70025 7.39162C2.51962 7.39162 3.18386 6.72832 3.18386 5.91011C3.18386 5.09189 2.51962 4.42859 1.70025 4.42859C0.880877 4.42859 0.216644 5.09189 0.216644 5.91011C0.216644 6.72832 0.880877 7.39162 1.70025 7.39162Z" fill="#3F3D56"/>
<path d="M48.7958 39.4929L47.6859 49.6905H55.3448L55.6778 48.9146L56.1218 49.6905H63.3368C63.3368 49.6905 62.7818 39.1604 61.7828 38.8279C60.7838 38.4953 48.7958 39.4929 48.7958 39.4929Z" fill="#2F2E41"/>
<path d="M55.3449 17.1026C57.4905 17.1026 59.2299 15.3657 59.2299 13.2231C59.2299 11.0805 57.4905 9.34363 55.3449 9.34363C53.1993 9.34363 51.4599 11.0805 51.4599 13.2231C51.4599 15.3657 53.1993 17.1026 55.3449 17.1026Z" fill="#FFB8B8"/>
<path d="M53.1249 15.6616C53.1249 15.6616 53.4579 19.2086 53.1249 19.4303C52.7919 19.652 58.4529 19.5411 58.4529 19.5411C58.4529 19.5411 57.6759 16.3267 58.4529 14.7749L53.1249 15.6616Z" fill="#FFB8B8"/>
<path d="M55.1229 18.6545C55.1229 18.6545 57.9791 19.0987 58.216 18.2115L59.6739 20.2063L59.7849 40.158C59.7849 40.158 47.908 41.599 47.464 39.2713C47.02 36.9436 52.0149 18.5437 52.0149 18.5437L53.2724 18.4624C53.2724 18.4624 54.9009 18.6545 55.1229 18.6545Z" fill="#D0CDE1"/>
<path d="M53.2535 17.5521L51.3489 18.2112L45.91 19.5413L46.132 32.8424C46.132 32.8424 41.47 46.1436 43.579 47.1412C45.688 48.1388 48.6849 45.8111 49.5729 44.1484C50.4609 42.4858 53.5689 19.4304 53.5689 18.9871C53.5689 18.5437 53.2535 17.5521 53.2535 17.5521Z" fill="#3F3D56"/>
<path d="M58.1446 17.5521L58.8969 18.2112L64.2248 20.6497L61.5608 34.0617C61.5608 34.0617 65.1128 46.2544 63.7808 46.9195C62.4488 47.5845 60.4508 49.4689 60.0068 48.3604C59.5629 47.252 56.9483 18.7774 58.1446 17.5521Z" fill="#3F3D56"/>
<path d="M61.2278 35.281C61.2278 35.281 56.2329 33.1749 56.1219 35.0593C56.0109 36.9436 61.7828 38.2737 61.7828 37.7195C61.7828 37.1653 61.2278 35.281 61.2278 35.281Z" fill="#FFB8B8"/>
<path d="M49.0179 34.505C49.0179 34.505 54.7898 38.8279 52.5699 39.9363C50.3499 41.0447 47.4639 36.0568 47.4639 36.0568L49.0179 34.505Z" fill="#FFB8B8"/>
<path d="M57.0696 7.54026C57.0879 7.50169 57.1173 7.46944 57.154 7.44767C57.1907 7.4259 57.2332 7.41559 57.2758 7.41807C55.4972 7.31183 53.6238 7.51884 52.1358 8.49759C51.7191 8.7717 51.3299 9.10689 50.8555 9.26137L51.2406 9.56294L50.7805 9.70301L51.4576 10.14C51.3892 10.2177 51.3015 10.2758 51.2033 10.3087C51.1052 10.3415 51 10.3479 50.8986 10.327C51.1929 10.4129 51.4096 10.6744 51.5196 10.9601C51.6297 11.2459 51.6495 11.5571 51.668 11.8627C51.7818 11.4217 52.2637 11.1622 52.7189 11.1358C53.1741 11.1094 53.618 11.2594 54.061 11.3672C55.0258 11.6014 56.0279 11.6399 57.008 11.4804C56.6752 12.1474 56.9559 12.9428 57.2384 13.6325L57.8024 15.0095C58.1156 15.041 58.3369 14.73 58.5728 14.522C58.7879 14.3324 57.9318 15.9999 58.0643 15.9388C58.2365 15.8594 60.0536 13.856 60.1387 13.6868C60.527 12.9146 60.7599 12.0533 60.7248 11.1899C60.6898 10.3266 60.3735 9.46284 59.7775 8.83636C59.373 8.41107 58.8132 8.33658 58.4008 7.98311C58.2385 7.84398 58.2379 7.7353 58.0148 7.65418C57.9407 7.62724 57.0819 7.51311 57.0696 7.54026Z" fill="#2F2E41"/>
<path d="M46.687 19.8738L45.91 19.5413L39.694 29.7388C39.694 29.7388 38.584 32.399 40.582 33.6183C42.58 34.8376 47.242 38.4954 47.242 38.4954L49.9059 34.3942C49.9059 34.3942 44.467 31.8448 44.8 30.8472C45.133 29.8497 46.909 27.1894 46.909 27.1894L46.687 19.8738Z" fill="#3F3D56"/>
<path d="M62.7818 20.428L64.2248 20.6497C64.2248 20.6497 70.2188 32.399 68.7758 34.6159C67.3328 36.8327 61.4498 39.9363 61.4498 39.9363C61.4498 39.9363 61.3388 36.2785 60.3398 34.9484L63.7808 33.6183L61.8938 26.3027L62.7818 20.428Z" fill="#3F3D56"/>
</g>
<defs>
<clipPath id="clip0">
<rect width="69" height="52" fill="white"/>
</clipPath>
</defs>
</svg>
