<svg width="63" height="61" viewBox="0 0 63 61" fill="none" xmlns="http://www.w3.org/2000/svg">
<g clip-path="url(#clip0)">
<g opacity="0.5">
<path opacity="0.5" d="M38.5415 0.000931548L5.34799 15.1411L26.2684 61.0013L59.4619 45.8611L38.5415 0.000931548Z" fill="url(#paint0_linear)"/>
</g>
<path d="M38.2729 0.531417L5.92389 15.2864L26.3819 60.1331L58.7309 45.3781L38.2729 0.531417Z" fill="white"/>
<path d="M29.6247 3.04477L13.5768 10.3645L15.35 14.2515L31.3979 6.93181L29.6247 3.04477Z" fill="url(#paint1_linear)"/>
<path d="M19.8674 2.90567C18.6288 3.47085 18.0934 4.95713 18.6722 6.22559C19.2509 7.49405 20.7245 8.06421 21.9631 7.49903C23.2018 6.93385 23.7371 5.44757 23.1584 4.17911C22.5796 2.91065 21.1061 2.34048 19.8674 2.90567ZM21.5197 6.5274C21.259 6.65384 20.9666 6.69973 20.6798 6.65921C20.3929 6.61869 20.1247 6.4936 19.9093 6.29992C19.6939 6.10624 19.5411 5.85276 19.4704 5.57184C19.3998 5.29092 19.4144 4.99532 19.5126 4.72279C19.6107 4.45025 19.7879 4.21315 20.0214 4.04176C20.255 3.87038 20.5343 3.77248 20.8237 3.76058C21.1132 3.74868 21.3996 3.82331 21.6464 3.97495C21.8932 4.12658 22.0893 4.34834 22.2095 4.6119C22.29 4.783 22.3361 4.9683 22.345 5.15721C22.3539 5.34611 22.3255 5.53492 22.2615 5.71286C22.1974 5.8908 22.0989 6.05438 21.9717 6.19426C21.8444 6.33415 21.6908 6.44759 21.5197 6.52811V6.5274Z" fill="url(#paint2_linear)"/>
<path d="M29.4565 3.12464L13.7467 10.2902L15.4419 14.0062L31.1517 6.84071L29.4565 3.12464Z" fill="#6C63FF"/>
<path d="M19.9442 3.07496C19.5098 3.27303 19.1439 3.59547 18.8928 4.0015C18.6416 4.40753 18.5165 4.87891 18.5333 5.35603C18.5501 5.83316 18.708 6.29459 18.987 6.68197C19.2661 7.06936 19.6538 7.3653 20.101 7.53236C20.5483 7.69943 21.035 7.73011 21.4997 7.62054C21.9644 7.51097 22.3862 7.26607 22.7117 6.9168C23.0372 6.56753 23.2518 6.12958 23.3284 5.65835C23.405 5.18711 23.3401 4.70375 23.1419 4.26939C22.8763 3.68702 22.3901 3.23403 21.7904 3.01004C21.1908 2.78604 20.5267 2.8094 19.9442 3.07496ZM21.5239 6.53796C21.2733 6.65217 20.9945 6.68954 20.7227 6.64534C20.4509 6.60113 20.1983 6.47734 19.9969 6.2896C19.7955 6.10187 19.6542 5.85863 19.591 5.59063C19.5278 5.32263 19.5455 5.04192 19.6419 4.78397C19.7382 4.52603 19.9089 4.30244 20.1323 4.14147C20.3557 3.9805 20.6218 3.88938 20.897 3.87964C21.1722 3.86989 21.4441 3.94196 21.6783 4.08672C21.9126 4.23148 22.0986 4.44244 22.213 4.69292C22.3661 5.02887 22.3796 5.4119 22.2503 5.75777C22.1211 6.10363 21.8598 6.38401 21.5239 6.53724V6.53796Z" fill="#6C63FF"/>
<path d="M17.684 18.6971L10.7579 21.8562L13.9172 28.7819L20.8434 25.6228L17.684 18.6971Z" fill="url(#paint3_linear)"/>
<path d="M23.9684 32.4109L17.0422 35.5701L20.2016 42.4957L27.1277 39.3366L23.9684 32.4109Z" fill="url(#paint4_linear)"/>
<path d="M17.5457 19.0661L11.1267 21.9939L14.0547 28.4125L20.4737 25.4847L17.5457 19.0661Z" fill="#69F0AE"/>
<path d="M23.7486 32.6632L17.3296 35.5911L20.2576 42.0097L26.6766 39.0818L23.7486 32.6632Z" fill="#06051F"/>
<path d="M31.4712 15.1083L22.6727 19.1215L22.9528 19.7354L31.7513 15.7222L31.4712 15.1083Z" fill="#E0E0E0"/>
<path d="M37.6211 13.416L23.0933 20.0424L23.3734 20.6563L37.9012 14.0299L37.6211 13.416Z" fill="#E0E0E0"/>
<path d="M37.017 14.8034L23.5125 20.963L23.7926 21.577L37.2971 15.4173L37.017 14.8034Z" fill="#E0E0E0"/>
<path d="M37.6743 28.7061L28.8758 32.7192L29.1559 33.3332L37.9544 29.32L37.6743 28.7061Z" fill="#E0E0E0"/>
<path d="M43.8239 27.013L29.2961 33.6394L29.5762 34.2534L44.1039 27.627L43.8239 27.013Z" fill="#E0E0E0"/>
<path d="M43.2204 28.401L29.7159 34.5607L29.996 35.1746L43.5005 29.015L43.2204 28.401Z" fill="#E0E0E0"/>
<path d="M14.169 24.021L15.8219 24.5577L16.3658 21.3766L17.1702 21.5965L16.2654 25.5293L13.7725 24.4367L14.169 24.021Z" fill="url(#paint5_linear)"/>
<path d="M14.3796 23.979L15.8169 24.4452L16.2896 21.6791L16.9886 21.8706L16.202 25.2901L14.0344 24.3406L14.3796 23.979Z" fill="white"/>
<path d="M20.6213 37.6608L22.0585 38.1271L22.5312 35.361L23.2303 35.5524L22.4437 38.972L20.276 38.0224L20.6213 37.6608Z" fill="white"/>
<path d="M48.2151 37.9819L27.6906 47.3435L30.8112 54.1844L51.3358 44.8227L48.2151 37.9819Z" fill="#E0E0E0"/>
<path d="M45.2397 43.4336C44.4509 43.2087 43.6437 43.2514 43.3924 44.1533C43.3077 44.4572 43.2977 44.9292 42.9717 45.0858C42.4919 45.3164 41.9131 44.8551 41.4967 44.6672C40.7207 44.317 39.9242 44.5555 39.475 45.2915C39.2472 45.6645 39.1497 46.0937 39.0721 46.5187C39.0386 46.703 39.0343 46.9308 38.9567 47.1045C38.808 47.4369 38.3424 47.407 38.037 47.3942C37.9701 47.3942 37.9018 47.3864 37.8334 47.3792C38.0748 47.0466 38.1954 46.6416 38.1751 46.2311C38.1552 45.557 37.7174 44.8195 36.9521 44.9021C36.2666 44.9733 35.784 45.6353 35.8608 46.3051C35.9263 46.8746 36.2972 47.3159 36.7727 47.5864C36.5392 47.6896 36.2901 47.77 36.0694 47.8768C35.9663 47.9267 35.8663 47.9826 35.7697 48.0441C35.1027 47.7223 34.2264 47.6618 33.6263 47.99C33.3358 48.1487 33.548 48.6207 33.8398 48.4605C34.2969 48.2106 34.8009 48.2733 35.2785 48.432L35.3184 48.4463C35.2712 48.5067 35.2295 48.5713 35.1938 48.6392C34.924 49.1631 35.1938 49.9916 35.8502 50.0486C36.7756 50.1276 36.819 48.9047 36.3164 48.4178C36.2951 48.3971 36.2737 48.3772 36.2509 48.358C36.4588 48.2576 36.6837 48.1822 36.8824 48.0975C37.0554 48.0242 37.2201 47.9326 37.3735 47.8241L37.4091 47.8334C38.116 47.9935 39.2194 48.0434 39.4736 47.1871C39.6914 46.4439 39.712 44.8658 40.8866 45.0117C41.3657 45.0708 41.7586 45.4388 42.2142 45.5719C42.6221 45.6937 43.0941 45.6986 43.4287 45.3982C43.7049 45.1505 43.7668 44.7847 43.8515 44.443C43.8949 44.2665 43.9377 44.0558 44.0815 43.9298C44.3413 43.7027 44.7705 43.8365 45.0603 43.9191C45.377 44.0088 45.5607 43.5247 45.2397 43.4336ZM36.0566 49.4549C35.9007 49.6094 35.7355 49.4869 35.6523 49.3254C35.5512 49.1289 35.5946 48.9353 35.7234 48.7623C35.7445 48.7341 35.7671 48.707 35.7911 48.6812C36.0993 48.8805 36.3513 49.1659 36.0594 49.4549H36.0566ZM36.6033 45.6111C36.9236 45.3135 37.37 45.379 37.5608 45.7876C37.7515 46.1962 37.6675 46.7728 37.3999 47.133C37.3644 47.1802 37.3251 47.2245 37.2824 47.2653C37.0959 47.203 36.9234 47.1046 36.7749 46.9756C36.3962 46.634 36.1819 46.0026 36.6062 45.6089L36.6033 45.6111Z" fill="#06051F"/>
<path d="M49.5087 15.7817L43.7626 18.0218C42.682 17.9414 40.4083 17.6481 38.1517 16.5839C35.6395 15.3995 32.7614 15.4023 30.3212 16.643C24.6974 16.7776 21.6022 16.0572 19.9507 15.3753L20.3864 14.4812L14.5619 12.2105L0 5.68457V32.4319L5.09624 34.7026L7.8298 28.1453L13.833 30.9214L14.9855 27.993L18.9271 30.9178L19.1954 31.1435L18.826 31.5271C18.4872 31.8849 18.2984 32.3588 18.2984 32.8515C18.2984 33.3441 18.4872 33.8181 18.826 34.1758C18.9899 34.3491 19.1874 34.4871 19.4065 34.5815C19.6256 34.6758 19.8617 34.7244 20.1002 34.7244C20.3387 34.7244 20.5748 34.6758 20.7939 34.5815C21.013 34.4871 21.2105 34.3491 21.3744 34.1758L21.1723 34.3894C20.8335 34.7471 20.6447 35.221 20.6447 35.7137C20.6447 36.2064 20.8335 36.6803 21.1723 37.038C21.3362 37.2113 21.5337 37.3493 21.7528 37.4437C21.9719 37.538 22.208 37.5867 22.4465 37.5867C22.6851 37.5867 22.9211 37.538 23.1402 37.4437C23.3593 37.3493 23.5568 37.2113 23.7207 37.038L24.8882 35.8244L24.0866 36.6572C23.7479 37.015 23.5591 37.4889 23.5591 37.9816C23.5591 38.4742 23.7479 38.9482 24.0866 39.3059C24.2506 39.4792 24.4481 39.6172 24.6672 39.7115C24.8863 39.8059 25.1223 39.8545 25.3609 39.8545C25.5994 39.8545 25.8355 39.8059 26.0546 39.7115C26.2736 39.6172 26.4712 39.4792 26.6351 39.3059L27.7876 38.1079L27.3028 38.6119C27.066 38.8618 26.934 39.193 26.934 39.5372C26.934 39.8815 27.066 40.2127 27.3028 40.4626C27.4173 40.5836 27.5553 40.6799 27.7083 40.7458C27.8613 40.8116 28.0261 40.8456 28.1927 40.8456C28.3592 40.8456 28.5241 40.8116 28.6771 40.7458C28.8301 40.6799 28.968 40.5836 29.0825 40.4626L29.8513 39.6639C31.1718 40.6285 32.2403 41.3324 32.7636 41.5147C34.944 42.2706 34.944 40.7566 34.944 40.7566C37.8562 42.2699 39.3127 39.2433 39.3127 39.2433C42.9532 40.7566 42.9532 36.9726 42.9532 36.9726C43.863 37.6032 44.5193 37.3142 44.9777 36.759C45.602 36.0059 45.6782 34.9432 45.2497 34.0904L48.7293 30.8751L50.2341 33.9516L56.2373 31.1755L58.9709 37.2352L62.9964 35.4379V8.97032L49.5087 15.7817Z" fill="url(#paint6_linear)"/>
<path d="M48.542 29.7881L42.205 35.42L37.2768 26.2675L48.542 23.4515V29.7881Z" fill="#BE7C5E"/>
<path d="M18.2664 15.0031C18.2664 15.0031 20.3002 17.819 32.3478 17.115L39.3889 27.6756L44.1071 32.9836C44.8481 33.8178 44.8902 35.0827 44.1626 35.9284C43.7206 36.4416 43.0849 36.7114 42.205 36.1241C42.205 36.1241 42.205 39.6441 38.6848 38.2361C38.6848 38.2361 37.2768 41.052 34.4606 39.6441C34.4606 39.6441 34.4606 41.052 32.3485 40.3481C30.2364 39.6441 18.9704 30.4922 18.9704 30.4922L14.0422 26.9723L18.2664 15.0031Z" fill="#FDA57D"/>
<path d="M43.6131 18.5237C43.6131 18.5237 40.5706 18.5237 37.5623 17.1577C34.8266 15.917 31.641 16.0751 29.1167 17.7037C27.0594 19.0312 25.2769 21.2293 25.3104 24.8596C25.3104 24.8596 28.0482 27.6756 30.9426 22.0437H33.0547C33.0547 22.0437 35.0885 29.0842 40.7998 28.3788C46.5111 27.6734 47.8409 26.9709 47.8409 26.9709L43.6131 18.5237Z" fill="#BE7C5E"/>
<path d="M25.1288 32.4253L24.9002 32.1968C24.2828 31.5794 23.2817 31.5794 22.6643 32.1968L21.0279 33.8331C20.4104 34.4505 20.4104 35.4515 21.0279 36.0689L21.2564 36.2974C21.8738 36.9148 22.8749 36.9148 23.4923 36.2974L25.1288 34.6611C25.7462 34.0437 25.7462 33.0427 25.1288 32.4253Z" fill="#BE7C5E"/>
<path d="M22.8595 29.7656L22.631 29.5371C22.0135 28.9197 21.0125 28.9197 20.395 29.5371L18.7586 31.1734C18.1412 31.7908 18.1412 32.7918 18.7586 33.4092L18.9871 33.6377C19.6046 34.2551 20.6056 34.2551 21.2231 33.6377L22.8595 32.0014C23.4769 31.384 23.4769 30.383 22.8595 29.7656Z" fill="#BE7C5E"/>
<path d="M28.2966 34.1845L28.0681 33.956C27.4506 33.3386 26.4496 33.3386 25.8321 33.956L23.8438 35.9442C23.2264 36.5616 23.2264 37.5626 23.8438 38.18L24.0724 38.4085C24.6898 39.0259 25.6909 39.0259 26.3083 38.4085L28.2966 36.4204C28.914 35.803 28.914 34.8019 28.2966 34.1845Z" fill="#BE7C5E"/>
<path d="M29.9641 36.6341L29.8045 36.4745C29.3733 36.0434 28.6742 36.0434 28.2431 36.4745L26.9882 37.7293C26.557 38.1605 26.557 38.8595 26.9882 39.2907L27.1477 39.4502C27.5789 39.8814 28.278 39.8814 28.7092 39.4502L29.9641 38.1954C30.3952 37.7643 30.3952 37.0652 29.9641 36.6341Z" fill="#BE7C5E"/>
<path d="M55.5823 31.1962L49.246 34.0122L42.909 18.5237L48.542 16.4117L55.5823 31.1962Z" fill="white"/>
<path d="M7.7059 27.6762L14.0422 30.4921L20.3792 15.0037L14.7462 12.891L7.7059 27.6762Z" fill="white"/>
<path d="M0.664856 6.55518L14.7462 12.8911L5.59381 34.0121L0.664856 31.9002V6.55518Z" fill="#06051F"/>
<path d="M62.6235 10.075L48.5421 16.4116L57.6952 37.5319L62.6235 35.42V10.075Z" fill="#06051F"/>
</g>
<defs>
<linearGradient id="paint0_linear" x1="42.8655" y1="53.4311" x2="21.9473" y2="7.56986" gradientUnits="userSpaceOnUse">
<stop stop-color="#808080" stop-opacity="0.25"/>
<stop offset="0.54" stop-color="#808080" stop-opacity="0.12"/>
<stop offset="1" stop-color="#808080" stop-opacity="0.1"/>
</linearGradient>
<linearGradient id="paint1_linear" x1="10126.3" y1="-3884.48" x2="10019.9" y2="-4117.78" gradientUnits="userSpaceOnUse">
<stop stop-color="#808080" stop-opacity="0.25"/>
<stop offset="0.54" stop-color="#808080" stop-opacity="0.12"/>
<stop offset="1" stop-color="#808080" stop-opacity="0.1"/>
</linearGradient>
<linearGradient id="paint2_linear" x1="2992.53" y1="-771.755" x2="2844.45" y2="-1096.41" gradientUnits="userSpaceOnUse">
<stop stop-color="#808080" stop-opacity="0.25"/>
<stop offset="0.54" stop-color="#808080" stop-opacity="0.12"/>
<stop offset="1" stop-color="#808080" stop-opacity="0.1"/>
</linearGradient>
<linearGradient id="paint3_linear" x1="4101.54" y1="922.013" x2="3763.74" y2="181.432" gradientUnits="userSpaceOnUse">
<stop stop-color="#808080" stop-opacity="0.25"/>
<stop offset="0.54" stop-color="#808080" stop-opacity="0.12"/>
<stop offset="1" stop-color="#808080" stop-opacity="0.1"/>
</linearGradient>
<linearGradient id="paint4_linear" x1="4784.97" y1="2398.43" x2="4447.15" y2="1657.78" gradientUnits="userSpaceOnUse">
<stop stop-color="#808080" stop-opacity="0.25"/>
<stop offset="0.54" stop-color="#808080" stop-opacity="0.12"/>
<stop offset="1" stop-color="#808080" stop-opacity="0.1"/>
</linearGradient>
<linearGradient id="paint5_linear" x1="1882.44" y1="552.645" x2="1791.98" y2="354.321" gradientUnits="userSpaceOnUse">
<stop stop-color="#808080" stop-opacity="0.25"/>
<stop offset="0.54" stop-color="#808080" stop-opacity="0.12"/>
<stop offset="1" stop-color="#808080" stop-opacity="0.1"/>
</linearGradient>
<linearGradient id="paint6_linear" x1="37773.9" y1="21886.5" x2="37773.9" y2="3637.95" gradientUnits="userSpaceOnUse">
<stop stop-color="#808080" stop-opacity="0.25"/>
<stop offset="0.54" stop-color="#808080" stop-opacity="0.12"/>
<stop offset="1" stop-color="#808080" stop-opacity="0.1"/>
</linearGradient>
<clipPath id="clip0">
<rect width="63" height="61" fill="white"/>
</clipPath>
</defs>
</svg>
