<svg width="85" height="50" viewBox="0 0 85 50" fill="none" xmlns="http://www.w3.org/2000/svg">
<path d="M26.5761 6.21351C26.9146 6.21351 27.1891 5.90035 27.1891 5.51404C27.1891 5.12774 26.9146 4.81458 26.5761 4.81458C26.2375 4.81458 25.963 5.12774 25.963 5.51404C25.963 5.90035 26.2375 6.21351 26.5761 6.21351Z" fill="#F2F2F2"/>
<path d="M24.1329 6.21351C24.4715 6.21351 24.7459 5.90035 24.7459 5.51404C24.7459 5.12774 24.4715 4.81458 24.1329 4.81458C23.7943 4.81458 23.5199 5.12774 23.5199 5.51404C23.5199 5.90035 23.7943 6.21351 24.1329 6.21351Z" fill="#F2F2F2"/>
<path d="M21.6897 6.21351C22.0283 6.21351 22.3027 5.90035 22.3027 5.51404C22.3027 5.12774 22.0283 4.81458 21.6897 4.81458C21.3511 4.81458 21.0767 5.12774 21.0767 5.51404C21.0767 5.90035 21.3511 6.21351 21.6897 6.21351Z" fill="#F2F2F2"/>
<path d="M19.2464 6.21351C19.585 6.21351 19.8595 5.90035 19.8595 5.51404C19.8595 5.12774 19.585 4.81458 19.2464 4.81458C18.9079 4.81458 18.6334 5.12774 18.6334 5.51404C18.6334 5.90035 18.9079 6.21351 19.2464 6.21351Z" fill="#F2F2F2"/>
<path d="M26.5761 9.13392C26.9146 9.13392 27.1891 8.82076 27.1891 8.43445C27.1891 8.04815 26.9146 7.73499 26.5761 7.73499C26.2375 7.73499 25.963 8.04815 25.963 8.43445C25.963 8.82076 26.2375 9.13392 26.5761 9.13392Z" fill="#F2F2F2"/>
<path d="M24.1329 9.13392C24.4715 9.13392 24.7459 8.82076 24.7459 8.43445C24.7459 8.04815 24.4715 7.73499 24.1329 7.73499C23.7943 7.73499 23.5199 8.04815 23.5199 8.43445C23.5199 8.82076 23.7943 9.13392 24.1329 9.13392Z" fill="#F2F2F2"/>
<path d="M21.6897 9.13392C22.0283 9.13392 22.3027 8.82076 22.3027 8.43445C22.3027 8.04815 22.0283 7.73499 21.6897 7.73499C21.3511 7.73499 21.0767 8.04815 21.0767 8.43445C21.0767 8.82076 21.3511 9.13392 21.6897 9.13392Z" fill="#F2F2F2"/>
<path d="M19.2464 9.13392C19.585 9.13392 19.8595 8.82076 19.8595 8.43445C19.8595 8.04815 19.585 7.73499 19.2464 7.73499C18.9079 7.73499 18.6334 8.04815 18.6334 8.43445C18.6334 8.82076 18.9079 9.13392 19.2464 9.13392Z" fill="#F2F2F2"/>
<path d="M26.5761 12.0543C26.9146 12.0543 27.1891 11.7412 27.1891 11.3549C27.1891 10.9686 26.9146 10.6554 26.5761 10.6554C26.2375 10.6554 25.963 10.9686 25.963 11.3549C25.963 11.7412 26.2375 12.0543 26.5761 12.0543Z" fill="#F2F2F2"/>
<path d="M24.1329 12.0543C24.4715 12.0543 24.7459 11.7412 24.7459 11.3549C24.7459 10.9686 24.4715 10.6554 24.1329 10.6554C23.7943 10.6554 23.5199 10.9686 23.5199 11.3549C23.5199 11.7412 23.7943 12.0543 24.1329 12.0543Z" fill="#F2F2F2"/>
<path d="M21.6897 12.0543C22.0283 12.0543 22.3027 11.7412 22.3027 11.3549C22.3027 10.9686 22.0283 10.6554 21.6897 10.6554C21.3511 10.6554 21.0767 10.9686 21.0767 11.3549C21.0767 11.7412 21.3511 12.0543 21.6897 12.0543Z" fill="#F2F2F2"/>
<path d="M19.2464 12.0543C19.585 12.0543 19.8595 11.7412 19.8595 11.3549C19.8595 10.9686 19.585 10.6554 19.2464 10.6554C18.9079 10.6554 18.6334 10.9686 18.6334 11.3549C18.6334 11.7412 18.9079 12.0543 19.2464 12.0543Z" fill="#F2F2F2"/>
<path d="M26.5761 14.9746C26.9146 14.9746 27.1891 14.6615 27.1891 14.2752C27.1891 13.8888 26.9146 13.5757 26.5761 13.5757C26.2375 13.5757 25.963 13.8888 25.963 14.2752C25.963 14.6615 26.2375 14.9746 26.5761 14.9746Z" fill="#F2F2F2"/>
<path d="M24.1329 14.9746C24.4715 14.9746 24.7459 14.6615 24.7459 14.2752C24.7459 13.8888 24.4715 13.5757 24.1329 13.5757C23.7943 13.5757 23.5199 13.8888 23.5199 14.2752C23.5199 14.6615 23.7943 14.9746 24.1329 14.9746Z" fill="#F2F2F2"/>
<path d="M21.6897 14.9746C22.0283 14.9746 22.3027 14.6615 22.3027 14.2752C22.3027 13.8888 22.0283 13.5757 21.6897 13.5757C21.3511 13.5757 21.0767 13.8888 21.0767 14.2752C21.0767 14.6615 21.3511 14.9746 21.6897 14.9746Z" fill="#F2F2F2"/>
<path d="M19.2464 14.9746C19.585 14.9746 19.8595 14.6615 19.8595 14.2752C19.8595 13.8888 19.585 13.5757 19.2464 13.5757C18.9079 13.5757 18.6334 13.8888 18.6334 14.2752C18.6334 14.6615 18.9079 14.9746 19.2464 14.9746Z" fill="#F2F2F2"/>
<path d="M26.5761 17.895C26.9146 17.895 27.1891 17.5819 27.1891 17.1956C27.1891 16.8093 26.9146 16.4961 26.5761 16.4961C26.2375 16.4961 25.963 16.8093 25.963 17.1956C25.963 17.5819 26.2375 17.895 26.5761 17.895Z" fill="#F2F2F2"/>
<path d="M24.1329 17.895C24.4715 17.895 24.7459 17.5819 24.7459 17.1956C24.7459 16.8093 24.4715 16.4961 24.1329 16.4961C23.7943 16.4961 23.5199 16.8093 23.5199 17.1956C23.5199 17.5819 23.7943 17.895 24.1329 17.895Z" fill="#F2F2F2"/>
<path d="M21.6897 17.895C22.0283 17.895 22.3027 17.5819 22.3027 17.1956C22.3027 16.8093 22.0283 16.4961 21.6897 16.4961C21.3511 16.4961 21.0767 16.8093 21.0767 17.1956C21.0767 17.5819 21.3511 17.895 21.6897 17.895Z" fill="#F2F2F2"/>
<path d="M19.2464 17.895C19.585 17.895 19.8595 17.5819 19.8595 17.1956C19.8595 16.8093 19.585 16.4961 19.2464 16.4961C18.9079 16.4961 18.6334 16.8093 18.6334 17.1956C18.6334 17.5819 18.9079 17.895 19.2464 17.895Z" fill="#F2F2F2"/>
<path d="M26.5761 20.8153C26.9146 20.8153 27.1891 20.5022 27.1891 20.1159C27.1891 19.7295 26.9146 19.4164 26.5761 19.4164C26.2375 19.4164 25.963 19.7295 25.963 20.1159C25.963 20.5022 26.2375 20.8153 26.5761 20.8153Z" fill="#F2F2F2"/>
<path d="M24.1329 20.8153C24.4715 20.8153 24.7459 20.5022 24.7459 20.1159C24.7459 19.7295 24.4715 19.4164 24.1329 19.4164C23.7943 19.4164 23.5199 19.7295 23.5199 20.1159C23.5199 20.5022 23.7943 20.8153 24.1329 20.8153Z" fill="#F2F2F2"/>
<path d="M21.6897 20.8153C22.0283 20.8153 22.3027 20.5022 22.3027 20.1159C22.3027 19.7295 22.0283 19.4164 21.6897 19.4164C21.3511 19.4164 21.0767 19.7295 21.0767 20.1159C21.0767 20.5022 21.3511 20.8153 21.6897 20.8153Z" fill="#F2F2F2"/>
<path d="M19.2464 20.8153C19.585 20.8153 19.8595 20.5022 19.8595 20.1159C19.8595 19.7295 19.585 19.4164 19.2464 19.4164C18.9079 19.4164 18.6334 19.7295 18.6334 20.1159C18.6334 20.5022 18.9079 20.8153 19.2464 20.8153Z" fill="#F2F2F2"/>
<path d="M21.1894 39.1978V39.4142C21.1896 39.7726 21.3146 40.1164 21.5367 40.3698C21.7589 40.6233 22.0601 40.7659 22.3743 40.7662H30.9058C31.22 40.766 31.5214 40.6236 31.7436 40.37C31.9657 40.1165 32.0906 39.7727 32.0907 39.4142V39.1978C32.0913 38.8815 31.994 38.575 31.8158 38.3326C31.7565 38.252 31.6894 38.1795 31.6158 38.1162C31.6158 38.1162 26.9254 37.9951 26.9254 37.8458H22.3743C22.0602 37.8463 21.759 37.9889 21.5369 38.2424C21.3148 38.4958 21.1898 38.8394 21.1894 39.1978Z" fill="#CCCCCC"/>
<path d="M27.3248 40.7123H26.0925V49.7978H27.3248V40.7123Z" fill="#CCCCCC"/>
<path d="M30.8322 49.7486C30.8322 49.9005 28.9648 49.8073 26.6612 49.8073C24.3576 49.8073 22.4902 49.9005 22.4902 49.7486C22.4902 49.5966 24.3576 48.3918 26.6612 48.3918C28.9648 48.3918 30.8322 49.5966 30.8322 49.7486Z" fill="#CCCCCC"/>
<path d="M29.1378 39.0142C29.2267 38.878 29.2884 38.7212 29.3186 38.5548C29.3487 38.3885 29.3464 38.2166 29.312 38.0513C29.2776 37.8861 29.2119 37.7314 29.1194 37.5983C29.0269 37.4651 28.91 37.3568 28.7769 37.2807L26.165 27.126L24.1761 28.2374L27.3689 37.8697C27.2718 38.1334 27.2629 38.4285 27.3438 38.6992C27.4247 38.9699 27.5898 39.1974 27.8078 39.3384C28.0259 39.4795 28.2817 39.5244 28.5268 39.4647C28.7719 39.4049 28.9893 39.2446 29.1378 39.0142L29.1378 39.0142Z" fill="#A0616A"/>
<path d="M26.7568 28.8218L24.5308 29.5094C24.4674 29.5289 24.4011 29.5327 24.3364 29.5204C24.2717 29.5081 24.2101 29.48 24.1557 29.4381C24.1013 29.3961 24.0556 29.3413 24.0214 29.2774C23.9873 29.2134 23.9657 29.1418 23.958 29.0675L23.6889 26.4621C23.6031 26.0918 23.6494 25.6978 23.8178 25.3664C23.9861 25.035 24.2628 24.7933 24.5871 24.6943C24.9114 24.5953 25.2569 24.6471 25.5478 24.8382C25.8387 25.0294 26.0513 25.3444 26.139 25.7142L27.056 28.1106C27.0822 28.1792 27.0952 28.2535 27.094 28.3283C27.0928 28.4032 27.0775 28.4769 27.0491 28.5444C27.0207 28.6119 26.9799 28.6716 26.9295 28.7195C26.879 28.7673 26.8201 28.8022 26.7568 28.8218H26.7568Z" fill="#6C63FF"/>
<path d="M29.7197 48.6836L30.8819 48.6835L31.4348 45.2444H29.7195L29.7197 48.6836Z" fill="#A0616A"/>
<path d="M29.4231 48.2507L31.7118 48.2506H31.7119C31.9035 48.2506 32.0931 48.2936 32.2701 48.3773C32.4471 48.4609 32.6078 48.5835 32.7433 48.738C32.8787 48.8926 32.9862 49.076 33.0595 49.2779C33.1328 49.4798 33.1705 49.6963 33.1705 49.9148V49.9689L29.4232 49.9691L29.4231 48.2507Z" fill="#2F2E41"/>
<path d="M31.0686 46.8393C31.0551 46.8393 31.0415 46.8385 31.0278 46.8371L29.4195 46.7034C29.3545 46.6966 29.2917 46.6727 29.236 46.6338C29.1803 46.5948 29.1332 46.5418 29.0983 46.4788C29.0634 46.4158 29.0417 46.3444 29.0347 46.2703C29.0278 46.1962 29.0359 46.1213 29.0584 46.0513L31.2109 40.5335C31.2262 40.4843 31.2325 40.432 31.2293 40.3799C31.2261 40.3278 31.2135 40.277 31.1923 40.2308C31.1711 40.1839 31.1414 40.1428 31.1053 40.11C31.0692 40.0772 31.0274 40.0535 30.9826 40.0404C29.9705 39.7385 27.3736 38.9347 25.1256 37.9942C24.1625 37.5912 23.5559 37.0089 23.3227 36.2634C23.0153 35.2806 23.4701 34.3842 23.4896 34.3466L23.5049 34.3171L25.6202 34.5365L27.9134 34.7591L32.9388 37.8339C33.3599 38.0937 33.6797 38.525 33.8347 39.0418C33.9896 39.5586 33.9682 40.1231 33.7747 40.6227L31.4579 46.5508C31.4244 46.6367 31.3698 46.7096 31.3007 46.7608C31.2316 46.812 31.151 46.8392 31.0686 46.8393Z" fill="#2F2E41"/>
<path d="M25.9879 23.62C27.2738 23.62 28.3162 22.4306 28.3162 20.9634C28.3162 19.4963 27.2738 18.3069 25.9879 18.3069C24.7021 18.3069 23.6597 19.4963 23.6597 20.9634C23.6597 22.4306 24.7021 23.62 25.9879 23.62Z" fill="#A0616A"/>
<path d="M29.0561 48.5755L30.2183 48.5753L30.7712 45.1362H29.0559L29.0561 48.5755Z" fill="#A0616A"/>
<path d="M28.7596 48.1426L31.0483 48.1425H31.0484C31.2399 48.1424 31.4296 48.1855 31.6065 48.2691C31.7835 48.3528 31.9443 48.4753 32.0797 48.6299C32.2152 48.7844 32.3226 48.9679 32.3959 49.1698C32.4692 49.3717 32.5069 49.5881 32.5069 49.8067V49.8607L28.7597 49.8609L28.7596 48.1426Z" fill="#2F2E41"/>
<path d="M30.4051 47.1639C30.3915 47.1639 30.3779 47.1631 30.3643 47.1616L28.7559 47.028C28.6909 47.0211 28.6281 46.9973 28.5724 46.9583C28.5167 46.9194 28.4696 46.8664 28.4347 46.8033C28.3998 46.7403 28.3781 46.669 28.3712 46.5949C28.3643 46.5208 28.3724 46.4459 28.3948 46.3759L30.5473 40.8581C30.5627 40.8089 30.569 40.7566 30.5658 40.7045C30.5626 40.6524 30.5499 40.6016 30.5287 40.5553C30.5075 40.5085 30.4779 40.4674 30.4418 40.4346C30.4056 40.4018 30.3638 40.378 30.3191 40.365C29.3069 40.0631 26.7101 39.2593 24.4621 38.3188C23.499 37.9158 22.8924 37.3335 22.6592 36.588C22.3518 35.6051 22.8066 34.7088 22.8261 34.6712L22.8413 34.6417L24.9566 34.8611L27.2498 35.0837L32.2752 38.1585C32.6963 38.4183 33.0162 38.8496 33.1711 39.3664C33.326 39.8832 33.3046 40.4477 33.1112 40.9473L30.7943 46.8754C30.7608 46.9612 30.7062 47.0342 30.6371 47.0854C30.568 47.1366 30.4874 47.1638 30.4051 47.1639Z" fill="#2F2E41"/>
<path d="M26.706 25.1264L24.2414 24.153C24.2414 24.153 22.6941 25.5093 23.4374 28.874C23.8255 30.6104 23.7124 32.4432 23.1151 34.1004C23.0432 34.3055 22.9603 34.5053 22.8669 34.6987C22.8669 34.6987 25.6159 38.4843 28.1753 35.6722L27.18 30.21C27.18 30.21 28.7441 26.5866 26.706 25.1264Z" fill="#2F2E41"/>
<path d="M26.2771 23.7103C25.9457 23.1444 25.6842 22.3597 26.0491 21.8212C26.4092 21.2897 27.1195 21.368 27.6711 21.1328C28.4393 20.8052 28.8848 19.7754 28.7459 18.8532C28.6069 17.931 27.9581 17.1665 27.1852 16.8537C26.4122 16.5409 25.5406 16.6426 24.7837 17.0028C23.8519 17.4463 23.0527 18.304 22.7175 19.3906C22.3823 20.4772 22.5615 21.7819 23.2568 22.617C24.0022 23.5124 25.1722 23.7511 26.2545 23.7366" fill="#2F2E41"/>
<path d="M24.1113 18.8828C23.6937 19.2707 23.0567 19.0984 22.6084 18.758C22.1602 18.4176 21.7965 17.933 21.3116 17.6661C20.4566 17.1956 19.4229 17.5083 18.5908 18.0295C17.7587 18.5507 17.0211 19.2707 16.1421 19.6796C15.2632 20.0886 14.1416 20.1088 13.476 19.3366C13.3123 19.878 13.2989 20.4639 13.4377 21.0144C13.5765 21.5648 13.8608 22.053 14.2518 22.4123C14.6427 22.7715 15.1213 22.9844 15.6223 23.0219C16.1232 23.0594 16.622 22.9196 17.0508 22.6216C18.0138 21.9523 18.5458 20.5488 19.6259 20.1794C20.2237 19.975 20.8655 20.1396 21.4696 20.318C22.0737 20.4963 22.7036 20.689 23.3133 20.5372C23.9229 20.3854 24.4932 19.7602 24.4156 19.0538L24.1113 18.8828Z" fill="#2F2E41"/>
<path d="M31.6905 43.9142C31.444 42.0871 31.444 40.2277 31.6905 38.4006C31.7061 38.2919 31.7551 38.193 31.8287 38.1216C31.9022 38.0502 31.9956 38.0108 32.0922 38.0106H35.8719C35.9331 38.0104 35.9936 38.0261 36.0487 38.0566C36.1038 38.0871 36.1521 38.1315 36.1899 38.1865C36.2285 38.2423 36.2555 38.3073 36.2688 38.3768C36.2821 38.4462 36.2813 38.5182 36.2665 38.5872C35.9129 40.2769 35.9129 42.0379 36.2664 43.7276C36.2812 43.7966 36.282 43.8686 36.2688 43.938C36.2555 44.0075 36.2285 44.0725 36.1899 44.1283C36.1521 44.1833 36.1038 44.2277 36.0487 44.2582C35.9936 44.2887 35.9331 44.3044 35.8719 44.3042H32.0922C31.9956 44.304 31.9022 44.2646 31.8287 44.1932C31.7551 44.1218 31.7061 44.0229 31.6905 43.9142Z" fill="#06051F"/>
<path d="M34.7087 40.6799H32.7252C32.6498 40.6798 32.5775 40.6456 32.5242 40.5848C32.4709 40.5239 32.4409 40.4414 32.4408 40.3554V40.2287C32.4409 40.1426 32.4709 40.0601 32.5242 39.9993C32.5775 39.9385 32.6498 39.9043 32.7252 39.9042H34.7087C34.7841 39.9043 34.8563 39.9385 34.9097 39.9993C34.963 40.0601 34.993 40.1426 34.993 40.2287V40.3554C34.993 40.4414 34.963 40.5239 34.9097 40.5848C34.8563 40.6456 34.7841 40.6798 34.7087 40.6799Z" fill="white"/>
<path d="M34.7087 42.015H32.7252C32.6498 42.0149 32.5775 41.9807 32.5242 41.9199C32.4709 41.8591 32.4409 41.7766 32.4408 41.6905V41.5637C32.4409 41.4777 32.4709 41.3952 32.5242 41.3344C32.5775 41.2736 32.6498 41.2394 32.7252 41.2393H34.7087C34.7841 41.2394 34.8563 41.2736 34.9097 41.3344C34.963 41.3952 34.993 41.4777 34.993 41.5637V41.6905C34.993 41.7766 34.963 41.8591 34.9097 41.9199C34.8563 41.9807 34.7841 42.0149 34.7087 42.015Z" fill="white"/>
<path d="M32.6843 38.5277C32.7406 38.3704 32.766 38.201 32.7588 38.0313C32.7515 37.8617 32.7117 37.6959 32.6422 37.5457C32.5727 37.3955 32.4751 37.2645 32.3565 37.1619C32.2378 37.0593 32.1008 36.9877 31.9553 36.9521L27.2027 27.8639L25.5203 29.507L30.7209 37.9237C30.6847 38.2067 30.7406 38.4951 30.8782 38.7341C31.0158 38.9732 31.2255 39.1463 31.4675 39.2207C31.7095 39.2952 31.9671 39.2658 32.1913 39.138C32.4156 39.0103 32.591 38.7931 32.6843 38.5277L32.6843 38.5277Z" fill="#A0616A"/>
<path d="M28.147 29.3372L26.1422 30.6375C26.0851 30.6745 26.0217 30.6971 25.9564 30.7036C25.891 30.7101 25.8252 30.7005 25.7634 30.6754C25.7016 30.6503 25.6452 30.6103 25.5982 30.5581C25.5511 30.5059 25.5145 30.4427 25.4908 30.3729L24.6598 27.9269C24.4956 27.5928 24.4542 27.1981 24.5446 26.8292C24.6351 26.4603 24.8501 26.1475 25.1424 25.9591C25.4347 25.7708 25.7806 25.7225 26.1041 25.8247C26.4276 25.9268 26.7025 26.1712 26.8683 26.5042L28.281 28.5632C28.3214 28.6222 28.3503 28.6904 28.3655 28.7632C28.3807 28.8361 28.3821 28.9118 28.3693 28.9852C28.3566 29.0587 28.3302 29.1281 28.2918 29.1889C28.2535 29.2496 28.2041 29.3002 28.147 29.3372Z" fill="#2F2E41"/>
<path d="M49.4798 32.5295H10.9931C10.8297 32.5295 10.673 32.6036 10.5575 32.7355C10.4419 32.8673 10.377 33.0461 10.377 33.2326C10.377 33.4191 10.4419 33.5979 10.5575 33.7297C10.673 33.8616 10.8297 33.9356 10.9931 33.9356H12.0833V49.2405C12.0833 49.427 12.1482 49.6058 12.2638 49.7376C12.3793 49.8695 12.536 49.9435 12.6995 49.9435C12.8629 49.9435 13.0196 49.8695 13.1351 49.7376C13.2507 49.6058 13.3156 49.427 13.3156 49.2405V35.2866L20.2234 49.5723C20.3053 49.7334 20.4398 49.8508 20.5975 49.8989C20.7552 49.9469 20.9231 49.9215 21.0645 49.8284C21.2058 49.7353 21.309 49.582 21.3514 49.4022C21.3938 49.2224 21.3719 49.0307 21.2906 48.8693L14.0696 33.9356H47.0625V33.9447L39.8459 48.8693C39.7642 49.0307 39.742 49.2226 39.7843 49.4027C39.8266 49.5828 39.9299 49.7364 40.0714 49.8296C40.2129 49.9229 40.3811 49.9481 40.5389 49.8999C40.6968 49.8516 40.8314 49.7338 40.9131 49.5723L47.0625 36.8549V49.2405C47.0625 49.427 47.1274 49.6058 47.243 49.7376C47.3585 49.8695 47.5152 49.9435 47.6787 49.9435C47.8421 49.9435 47.9988 49.8695 48.1144 49.7376C48.2299 49.6058 48.2948 49.427 48.2948 49.2405V34.3063L48.4741 33.9356H49.4798C49.6432 33.9356 49.7999 33.8616 49.9155 33.7297C50.031 33.5979 50.0959 33.4191 50.0959 33.2326C50.0959 33.0461 50.031 32.8673 49.9155 32.7355C49.7999 32.6036 49.6432 32.5295 49.4798 32.5295Z" fill="#3F3D56"/>
<path d="M33.5542 32.0969H26.0655C25.8822 32.0969 25.7337 32.2664 25.7337 32.4755C25.7337 32.6846 25.8822 32.8541 26.0655 32.8541H33.5542C33.7375 32.8541 33.886 32.6846 33.886 32.4755C33.886 32.2664 33.7375 32.0969 33.5542 32.0969Z" fill="#CCCCCC"/>
<path d="M38.5782 32.854H30.1415C29.9781 32.8537 29.8215 32.7796 29.706 32.6478C29.5905 32.516 29.5255 32.3373 29.5253 32.1509V26.851C29.5255 26.6646 29.5905 26.4859 29.706 26.3541C29.8215 26.2223 29.9781 26.1482 30.1415 26.1479H38.5782C38.7416 26.1482 38.8982 26.2223 39.0137 26.3541C39.1292 26.4859 39.1942 26.6646 39.1944 26.851V32.1509C39.1942 32.3373 39.1292 32.516 39.0137 32.6478C38.8982 32.7796 38.7416 32.8537 38.5782 32.854Z" fill="#CCCCCC"/>
<path d="M34.3599 30.1499C34.674 30.1499 34.9287 29.8593 34.9287 29.5009C34.9287 29.1425 34.674 28.8519 34.3599 28.8519C34.0458 28.8519 33.7911 29.1425 33.7911 29.5009C33.7911 29.8593 34.0458 30.1499 34.3599 30.1499Z" fill="white"/>
<path d="M45.0168 19.7959V0.813528C45.017 0.597842 45.0922 0.391061 45.2259 0.238547C45.3595 0.0860343 45.5408 0.000245336 45.7298 0H58.8805C59.0696 0.000245336 59.2508 0.0860343 59.3845 0.238547C59.5181 0.391061 59.5933 0.597842 59.5935 0.813528V19.7959C59.5933 20.0116 59.5181 20.2183 59.3845 20.3709C59.2508 20.5234 59.0696 20.6092 58.8805 20.6094H45.7298C45.5408 20.6092 45.3595 20.5234 45.2259 20.3709C45.0922 20.2183 45.017 20.0116 45.0168 19.7959ZM45.7298 0.180785C45.5828 0.180973 45.4418 0.247697 45.3379 0.366319C45.2339 0.484941 45.1754 0.645772 45.1753 0.813528V19.7959C45.1754 19.9636 45.2339 20.1245 45.3379 20.2431C45.4418 20.3617 45.5828 20.4284 45.7298 20.4286H58.8805C59.0276 20.4284 59.1685 20.3617 59.2725 20.2431C59.3764 20.1245 59.4349 19.9636 59.4351 19.7959V0.813528C59.4349 0.645772 59.3764 0.484941 59.2725 0.366319C59.1685 0.247697 59.0276 0.180973 58.8805 0.180785H45.7298Z" fill="#E6E6E6"/>
<path d="M53.0425 8.71752V4.81985C53.0426 4.71201 53.0802 4.60861 53.1471 4.53235C53.2139 4.4561 53.3045 4.41321 53.399 4.41309H56.2938C56.3883 4.41321 56.4789 4.4561 56.5457 4.53235C56.6126 4.60861 56.6502 4.71201 56.6503 4.81985V8.71752C56.6502 8.82537 56.6126 8.92876 56.5457 9.00502C56.4789 9.08128 56.3883 9.12417 56.2938 9.12429H53.399C53.3045 9.12417 53.2139 9.08128 53.1471 9.00502C53.0802 8.92876 53.0426 8.82537 53.0425 8.71752Z" fill="#06051F"/>
<path d="M47.418 10.5254V6.62771C47.4181 6.51987 47.4557 6.41648 47.5225 6.34022C47.5894 6.26396 47.68 6.22107 47.7745 6.22095H50.6692C50.7638 6.22107 50.8544 6.26396 50.9212 6.34022C50.988 6.41648 51.0256 6.51987 51.0257 6.62771V10.5254C51.0256 10.6332 50.988 10.7366 50.9212 10.8129C50.8544 10.8891 50.7638 10.932 50.6692 10.9322H47.7745C47.68 10.932 47.5894 10.8891 47.5225 10.8129C47.4557 10.7366 47.4181 10.6332 47.418 10.5254Z" fill="#CCCCCC"/>
<path d="M51.9336 16.0393V12.1416C51.9337 12.0338 51.9713 11.9304 52.0381 11.8541C52.105 11.7779 52.1956 11.735 52.2901 11.7349H55.1848C55.2793 11.735 55.3699 11.7779 55.4368 11.8541C55.5036 11.9304 55.5412 12.0338 55.5413 12.1416V16.0393C55.5412 16.1471 55.5036 16.2505 55.4368 16.3268C55.3699 16.403 55.2793 16.4459 55.1848 16.4461H52.2901C52.1956 16.4459 52.105 16.4031 52.0381 16.3268C51.9713 16.2505 51.9337 16.1471 51.9336 16.0393Z" fill="#FF6584"/>
<path d="M74.01 1.97792C74.3486 1.97792 74.623 1.66475 74.623 1.27845C74.623 0.892142 74.3486 0.578979 74.01 0.578979C73.6714 0.578979 73.397 0.892142 73.397 1.27845C73.397 1.66475 73.6714 1.97792 74.01 1.97792Z" fill="#F2F2F2"/>
<path d="M74.01 4.76564C74.3486 4.76564 74.623 4.45247 74.623 4.06617C74.623 3.67986 74.3486 3.3667 74.01 3.3667C73.6714 3.3667 73.397 3.67986 73.397 4.06617C73.397 4.45247 73.6714 4.76564 74.01 4.76564Z" fill="#F2F2F2"/>
<path d="M74.01 7.55336C74.3486 7.55336 74.623 7.24019 74.623 6.85389C74.623 6.46758 74.3486 6.15442 74.01 6.15442C73.6714 6.15442 73.397 6.46758 73.397 6.85389C73.397 7.24019 73.6714 7.55336 74.01 7.55336Z" fill="#F2F2F2"/>
<path d="M74.01 10.3411C74.3486 10.3411 74.623 10.0279 74.623 9.64161C74.623 9.2553 74.3486 8.94214 74.01 8.94214C73.6714 8.94214 73.397 9.2553 73.397 9.64161C73.397 10.0279 73.6714 10.3411 74.01 10.3411Z" fill="#F2F2F2"/>
<path d="M71.4506 1.97792C71.7892 1.97792 72.0637 1.66475 72.0637 1.27845C72.0637 0.892142 71.7892 0.578979 71.4506 0.578979C71.1121 0.578979 70.8376 0.892142 70.8376 1.27845C70.8376 1.66475 71.1121 1.97792 71.4506 1.97792Z" fill="#F2F2F2"/>
<path d="M71.4506 4.76564C71.7892 4.76564 72.0637 4.45247 72.0637 4.06617C72.0637 3.67986 71.7892 3.3667 71.4506 3.3667C71.1121 3.3667 70.8376 3.67986 70.8376 4.06617C70.8376 4.45247 71.1121 4.76564 71.4506 4.76564Z" fill="#F2F2F2"/>
<path d="M71.4506 7.55336C71.7892 7.55336 72.0637 7.24019 72.0637 6.85389C72.0637 6.46758 71.7892 6.15442 71.4506 6.15442C71.1121 6.15442 70.8376 6.46758 70.8376 6.85389C70.8376 7.24019 71.1121 7.55336 71.4506 7.55336Z" fill="#F2F2F2"/>
<path d="M71.4506 10.3411C71.7892 10.3411 72.0637 10.0279 72.0637 9.64161C72.0637 9.2553 71.7892 8.94214 71.4506 8.94214C71.1121 8.94214 70.8376 9.2553 70.8376 9.64161C70.8376 10.0279 71.1121 10.3411 71.4506 10.3411Z" fill="#F2F2F2"/>
<path d="M68.8912 1.97792C69.2297 1.97792 69.5042 1.66475 69.5042 1.27845C69.5042 0.892142 69.2297 0.578979 68.8912 0.578979C68.5526 0.578979 68.2781 0.892142 68.2781 1.27845C68.2781 1.66475 68.5526 1.97792 68.8912 1.97792Z" fill="#F2F2F2"/>
<path d="M68.8912 4.76564C69.2297 4.76564 69.5042 4.45247 69.5042 4.06617C69.5042 3.67986 69.2297 3.3667 68.8912 3.3667C68.5526 3.3667 68.2781 3.67986 68.2781 4.06617C68.2781 4.45247 68.5526 4.76564 68.8912 4.76564Z" fill="#F2F2F2"/>
<path d="M68.8912 7.55336C69.2297 7.55336 69.5042 7.24019 69.5042 6.85389C69.5042 6.46758 69.2297 6.15442 68.8912 6.15442C68.5526 6.15442 68.2781 6.46758 68.2781 6.85389C68.2781 7.24019 68.5526 7.55336 68.8912 7.55336Z" fill="#F2F2F2"/>
<path d="M68.8912 10.3411C69.2297 10.3411 69.5042 10.0279 69.5042 9.64161C69.5042 9.2553 69.2297 8.94214 68.8912 8.94214C68.5526 8.94214 68.2781 9.2553 68.2781 9.64161C68.2781 10.0279 68.5526 10.3411 68.8912 10.3411Z" fill="#F2F2F2"/>
<path d="M66.3317 1.97792C66.6702 1.97792 66.9447 1.66475 66.9447 1.27845C66.9447 0.892142 66.6702 0.578979 66.3317 0.578979C65.9931 0.578979 65.7186 0.892142 65.7186 1.27845C65.7186 1.66475 65.9931 1.97792 66.3317 1.97792Z" fill="#F2F2F2"/>
<path d="M66.3317 4.76564C66.6702 4.76564 66.9447 4.45247 66.9447 4.06617C66.9447 3.67986 66.6702 3.3667 66.3317 3.3667C65.9931 3.3667 65.7186 3.67986 65.7186 4.06617C65.7186 4.45247 65.9931 4.76564 66.3317 4.76564Z" fill="#F2F2F2"/>
<path d="M66.3317 7.55336C66.6702 7.55336 66.9447 7.24019 66.9447 6.85389C66.9447 6.46758 66.6702 6.15442 66.3317 6.15442C65.9931 6.15442 65.7186 6.46758 65.7186 6.85389C65.7186 7.24019 65.9931 7.55336 66.3317 7.55336Z" fill="#F2F2F2"/>
<path d="M66.3317 10.3411C66.6702 10.3411 66.9447 10.0279 66.9447 9.64161C66.9447 9.2553 66.6702 8.94214 66.3317 8.94214C65.9931 8.94214 65.7186 9.2553 65.7186 9.64161C65.7186 10.0279 65.9931 10.3411 66.3317 10.3411Z" fill="#F2F2F2"/>
<path d="M63.7723 1.97792C64.1109 1.97792 64.3853 1.66475 64.3853 1.27845C64.3853 0.892142 64.1109 0.578979 63.7723 0.578979C63.4337 0.578979 63.1593 0.892142 63.1593 1.27845C63.1593 1.66475 63.4337 1.97792 63.7723 1.97792Z" fill="#F2F2F2"/>
<path d="M63.7723 4.76564C64.1109 4.76564 64.3853 4.45247 64.3853 4.06617C64.3853 3.67986 64.1109 3.3667 63.7723 3.3667C63.4337 3.3667 63.1593 3.67986 63.1593 4.06617C63.1593 4.45247 63.4337 4.76564 63.7723 4.76564Z" fill="#F2F2F2"/>
<path d="M63.7723 7.55336C64.1109 7.55336 64.3853 7.24019 64.3853 6.85389C64.3853 6.46758 64.1109 6.15442 63.7723 6.15442C63.4337 6.15442 63.1593 6.46758 63.1593 6.85389C63.1593 7.24019 63.4337 7.55336 63.7723 7.55336Z" fill="#F2F2F2"/>
<path d="M63.7723 10.3411C64.1109 10.3411 64.3853 10.0279 64.3853 9.64161C64.3853 9.2553 64.1109 8.94214 63.7723 8.94214C63.4337 8.94214 63.1593 9.2553 63.1593 9.64161C63.1593 10.0279 63.4337 10.3411 63.7723 10.3411Z" fill="#F2F2F2"/>
<path d="M61.2128 1.97792C61.5514 1.97792 61.8258 1.66475 61.8258 1.27845C61.8258 0.892142 61.5514 0.578979 61.2128 0.578979C60.8743 0.578979 60.5998 0.892142 60.5998 1.27845C60.5998 1.66475 60.8743 1.97792 61.2128 1.97792Z" fill="#F2F2F2"/>
<path d="M61.2128 4.76564C61.5514 4.76564 61.8258 4.45247 61.8258 4.06617C61.8258 3.67986 61.5514 3.3667 61.2128 3.3667C60.8743 3.3667 60.5998 3.67986 60.5998 4.06617C60.5998 4.45247 60.8743 4.76564 61.2128 4.76564Z" fill="#F2F2F2"/>
<path d="M61.2128 7.55336C61.5514 7.55336 61.8258 7.24019 61.8258 6.85389C61.8258 6.46758 61.5514 6.15442 61.2128 6.15442C60.8743 6.15442 60.5998 6.46758 60.5998 6.85389C60.5998 7.24019 60.8743 7.55336 61.2128 7.55336Z" fill="#F2F2F2"/>
<path d="M61.2128 10.3411C61.5514 10.3411 61.8258 10.0279 61.8258 9.64161C61.8258 9.2553 61.5514 8.94214 61.2128 8.94214C60.8743 8.94214 60.5998 9.2553 60.5998 9.64161C60.5998 10.0279 60.8743 10.3411 61.2128 10.3411Z" fill="#F2F2F2"/>
<path d="M63.6825 26.0943C63.6322 25.9367 63.6116 25.7689 63.6222 25.6016C63.6327 25.4344 63.6741 25.2716 63.7436 25.1239C63.8131 24.9762 63.9092 24.8469 64.0256 24.7446C64.1419 24.6422 64.2759 24.569 64.4188 24.5298C64.4641 24.5177 64.51 24.5091 64.5564 24.5043L66.8601 19.8967L66.2784 18.7565L67.7264 17.4818L68.8343 19.2375C68.9664 19.4485 69.0353 19.7026 69.0309 19.9619C69.0265 20.2212 68.9489 20.472 68.8096 20.677L65.6468 25.297C65.6583 25.3337 65.6681 25.371 65.6763 25.4089C65.7106 25.5719 65.7143 25.7414 65.6872 25.9062C65.6601 26.071 65.6028 26.2274 65.519 26.3651C65.4352 26.5029 65.3269 26.6189 65.2011 26.7055C65.0753 26.7922 64.9348 26.8475 64.789 26.8679C64.7466 26.874 64.704 26.8771 64.6613 26.8771C64.4476 26.8763 64.2393 26.8008 64.0643 26.6609C63.8893 26.5209 63.756 26.3232 63.6825 26.0943Z" fill="#FFB8B8"/>
<path d="M59.188 48.7688L58.0258 48.7687L57.4729 43.6539L59.1881 43.654L59.188 48.7688Z" fill="#FFB8B8"/>
<path d="M57.1956 48.3896H59.4369V49.9998H55.7844C55.7844 49.7884 55.8209 49.579 55.8918 49.3836C55.9627 49.1883 56.0666 49.0108 56.1977 48.8613C56.3287 48.7117 56.4843 48.5931 56.6555 48.5122C56.8267 48.4313 57.0102 48.3896 57.1956 48.3896Z" fill="#2F2E41"/>
<path d="M68.7621 48.7688L67.5999 48.7687L67.047 43.6539L68.7622 43.654L68.7621 48.7688Z" fill="#FFB8B8"/>
<path d="M66.7698 48.3896H69.0111V49.9998H65.3586C65.3586 49.7884 65.3951 49.579 65.466 49.3836C65.537 49.1883 65.6409 49.0108 65.7719 48.8613C65.903 48.7117 66.0585 48.5931 66.2298 48.5122C66.401 48.4313 66.5845 48.3896 66.7698 48.3896Z" fill="#2F2E41"/>
<path d="M68.0487 17.7308L65.4396 18.8621L64.8025 16.8431C64.718 16.575 64.7191 16.2814 64.8059 16.0142C64.8927 15.747 65.0594 15.5234 65.2767 15.383C65.4965 15.2409 65.7536 15.1931 66.0015 15.2483C66.2494 15.3036 66.4719 15.4581 66.6287 15.6841L68.0487 17.7308Z" fill="#6C63FF"/>
<path d="M59.2881 44.6262L57.0998 44.0567C56.9835 44.0262 56.8815 43.9466 56.8145 43.8339C56.7475 43.7211 56.7203 43.5836 56.7385 43.449C57.6165 37.0989 58.4613 33.3801 60.6383 28.6576C60.6688 28.5696 61.0087 26.7823 61.2305 25.5982C61.228 25.4678 61.2671 25.3407 61.3406 25.2408C61.4141 25.1408 61.517 25.0747 61.63 25.0548L65.7104 24.3383C65.7719 24.314 65.8369 24.3028 65.902 24.3054L65.9428 24.3142L65.9423 24.36C65.9418 24.4074 65.9005 24.4146 65.885 24.4173L65.8307 24.4268C65.8926 24.4597 65.9494 24.5038 65.999 24.5573C67.7868 27.0108 68.7164 35.0533 69.8972 43.9382C69.9038 44.0103 69.8961 44.0832 69.8747 44.1515C69.8533 44.2198 69.8187 44.2817 69.7736 44.3327C69.7309 44.386 69.6791 44.4288 69.6215 44.4585C69.5639 44.4883 69.5015 44.5044 69.4383 44.5059L66.8313 44.5784C66.7168 44.5813 66.6052 44.5366 66.5174 44.4527C66.4296 44.3688 66.3715 44.2513 66.354 44.1221L64.598 32.5436C64.5859 32.4531 64.5488 32.3694 64.4922 32.3047C64.4355 32.2399 64.3622 32.1975 64.283 32.1836C64.2037 32.1696 64.1227 32.1849 64.0515 32.2271C63.9804 32.2694 63.923 32.3365 63.8876 32.4185C62.4709 35.7104 61.1498 38.5572 59.8487 44.2369C59.8229 44.3521 59.7643 44.4542 59.682 44.5272C59.5998 44.6001 59.4986 44.6398 59.3944 44.6399C59.3586 44.6399 59.323 44.6353 59.2881 44.6262Z" fill="#2F2E41"/>
<path d="M61.4124 25.7304C61.3575 25.6861 61.3115 25.6289 61.2774 25.5627C61.2433 25.4966 61.222 25.4229 61.2149 25.3465C60.8807 21.787 61.1135 19.0013 61.9264 16.8305C62.0696 16.456 62.2853 16.1235 62.5573 15.8579C62.8293 15.5922 63.1505 15.4004 63.4968 15.2968L65.606 15.1753L65.6169 15.1813C66.0928 15.4473 66.481 15.8812 66.7238 16.4187C66.9666 16.9562 67.0511 17.5687 66.9648 18.1653C66.2864 20.2056 65.7184 22.3299 66.1516 24.0435C66.1698 24.1151 66.1751 24.1902 66.1672 24.2642C66.1593 24.3383 66.1384 24.4097 66.1057 24.4743C66.0741 24.5368 66.0315 24.5911 65.9807 24.6341C65.9299 24.677 65.8719 24.7077 65.8104 24.7241L61.7931 25.8145C61.7281 25.8321 61.6605 25.8338 61.5948 25.8193C61.5292 25.8048 61.467 25.7745 61.4124 25.7304Z" fill="#06051F"/>
<path d="M60.5043 20.6223L56.459 16.9809C56.4268 16.9939 56.394 17.0049 56.3608 17.014C56.218 17.0521 56.0698 17.0555 55.9258 17.024C55.7818 16.9925 55.6452 16.9267 55.5249 16.831C55.4038 16.7353 55.302 16.6111 55.2264 16.4669C55.1508 16.3226 55.103 16.1616 55.0863 15.9946C55.0592 15.7276 55.1119 15.458 55.236 15.2295C55.36 15.001 55.5481 14.827 55.7697 14.7358C55.908 14.6792 56.0552 14.6566 56.2017 14.6694C56.3482 14.6822 56.4907 14.7302 56.6198 14.8103C56.7489 14.8903 56.8618 15.0005 56.9509 15.1338C57.0401 15.267 57.1036 15.4203 57.1372 15.5835C57.1477 15.6352 57.1549 15.6877 57.1589 15.7406L61.186 18.3913L62.1881 17.733L63.2982 19.3913L61.7423 20.6567C61.5601 20.8036 61.3413 20.8796 61.1183 20.8734C60.8953 20.8672 60.68 20.7792 60.5043 20.6223H60.5043Z" fill="#FFB8B8"/>
<path d="M63.7919 19.9077L61.4838 18.1169L62.5685 16.3639C62.7125 16.1311 62.924 15.964 63.1656 15.8919C63.4073 15.8199 63.6634 15.8476 63.8888 15.9702C64.1169 16.0942 64.2985 16.3072 64.401 16.5707C64.5035 16.8341 64.52 17.1307 64.4476 17.4069L63.7919 19.9077Z" fill="#06051F"/>
<path d="M64.902 14.2765C66.1879 14.2765 67.2303 13.0871 67.2303 11.6199C67.2303 10.1528 66.1879 8.96338 64.902 8.96338C63.6162 8.96338 62.5738 10.1528 62.5738 11.6199C62.5738 13.0871 63.6162 14.2765 64.902 14.2765Z" fill="#FFB8B8"/>
<path d="M64.0483 11.2243C63.4499 11.6916 62.6642 12.1719 62.053 11.6743C61.6517 11.3475 61.5253 10.7424 61.688 10.2114C61.9807 9.25652 62.7847 8.83612 63.5536 8.51388C64.5532 8.09496 65.6415 7.7617 66.6734 8.06171C67.7053 8.36171 68.6172 9.50165 68.431 10.6979C68.2812 11.6599 67.4859 12.4604 67.5988 13.429C67.7124 14.4037 68.6731 14.9168 69.5213 15.091C70.3695 15.2652 71.3187 15.3212 71.9282 16.0164C72.7058 16.9032 72.5117 18.4882 71.78 19.4245C71.0483 20.3608 69.9441 20.7852 68.8741 21.0737C67.4565 21.456 65.9233 21.6569 64.5769 21.0224C63.2305 20.388 62.1828 18.6803 62.5728 17.0789C62.7376 16.4025 63.1257 15.8308 63.5007 15.2743C63.8758 14.7177 64.2556 14.1358 64.3987 13.453C64.5179 12.884 64.4296 12.2233 64.0989 11.7965C64.0388 11.7218 64.0009 11.6272 63.9908 11.5265C63.9807 11.4257 63.9988 11.3238 64.0426 11.2355L64.0483 11.2243Z" fill="#2F2E41"/>
</svg>
